<?xml version="1.0" standalone="no"?>
<!DOCTYPE svg PUBLIC "-//W3C//DTD SVG 20010904//EN"
 "http://www.w3.org/TR/2001/REC-SVG-20010904/DTD/svg10.dtd">
<svg version="1.0" xmlns="http://www.w3.org/2000/svg"
 width="80.000000pt" height="80.000000pt" viewBox="0 0 80.000000 80.000000"
 preserveAspectRatio="xMidYMid meet">
<metadata>
Created by potrace 1.14, written by Peter Selinger 2001-2017
</metadata>
<g transform="translate(0.000000,80.000000) scale(0.100000,-0.100000)"
fill="#000000" stroke="none">
<path d="M290 785 c-114 -36 -226 -139 -264 -244 -36 -102 -30 -224 16 -320
13 -25 50 -73 83 -106 79 -77 153 -108 263 -109 93 -1 125 5 183 34 142 72
220 193 225 349 2 95 -12 150 -61 226 -43 67 -87 105 -167 144 -56 28 -80 34
-150 36 -51 2 -100 -2 -128 -10z"/>
</g>
</svg>
